<mxfile host="app.diagrams.net" agent="Mozilla/5.0 (Windows NT 10.0; Win64; x64) AppleWebKit/537.36 (KHTML, like Gecko) Chrome/128.0.0.0 Safari/537.36 OPR/114.0.0.0" version="24.7.17">
  <diagram name="Page-1" id="iui6J8lZSDx-FPKmXQ_p">
    <mxGraphModel dx="1161" dy="629" grid="1" gridSize="10" guides="1" tooltips="1" connect="1" arrows="1" fold="1" page="1" pageScale="1" pageWidth="1200" pageHeight="1200" math="0" shadow="0">
      <root>
        <mxCell id="0" />
        <mxCell id="1" parent="0" />
        <mxCell id="ylqDBzfYfdz9K3D1WMCK-1" value="Artículos" style="whiteSpace=wrap;html=1;align=center;" vertex="1" parent="1">
          <mxGeometry x="360" y="240" width="100" height="40" as="geometry" />
        </mxCell>
        <mxCell id="ylqDBzfYfdz9K3D1WMCK-2" value="Pedidos" style="whiteSpace=wrap;html=1;align=center;" vertex="1" parent="1">
          <mxGeometry x="700" y="240" width="100" height="40" as="geometry" />
        </mxCell>
        <mxCell id="ylqDBzfYfdz9K3D1WMCK-3" value="Ingredientes" style="whiteSpace=wrap;html=1;align=center;" vertex="1" parent="1">
          <mxGeometry x="530" y="360" width="100" height="40" as="geometry" />
        </mxCell>
        <mxCell id="ylqDBzfYfdz9K3D1WMCK-5" style="edgeStyle=orthogonalEdgeStyle;rounded=0;orthogonalLoop=1;jettySize=auto;html=1;exitX=0;exitY=0.5;exitDx=0;exitDy=0;entryX=1;entryY=0.5;entryDx=0;entryDy=0;" edge="1" parent="1" source="ylqDBzfYfdz9K3D1WMCK-4" target="ylqDBzfYfdz9K3D1WMCK-1">
          <mxGeometry relative="1" as="geometry" />
        </mxCell>
        <mxCell id="ylqDBzfYfdz9K3D1WMCK-6" style="edgeStyle=orthogonalEdgeStyle;rounded=0;orthogonalLoop=1;jettySize=auto;html=1;exitX=0.5;exitY=1;exitDx=0;exitDy=0;entryX=0.5;entryY=0;entryDx=0;entryDy=0;" edge="1" parent="1" source="ylqDBzfYfdz9K3D1WMCK-4" target="ylqDBzfYfdz9K3D1WMCK-3">
          <mxGeometry relative="1" as="geometry" />
        </mxCell>
        <mxCell id="ylqDBzfYfdz9K3D1WMCK-7" style="edgeStyle=orthogonalEdgeStyle;rounded=0;orthogonalLoop=1;jettySize=auto;html=1;exitX=1;exitY=0.5;exitDx=0;exitDy=0;entryX=0;entryY=0.5;entryDx=0;entryDy=0;" edge="1" parent="1" source="ylqDBzfYfdz9K3D1WMCK-4" target="ylqDBzfYfdz9K3D1WMCK-2">
          <mxGeometry relative="1" as="geometry" />
        </mxCell>
        <mxCell id="ylqDBzfYfdz9K3D1WMCK-31" style="rounded=0;orthogonalLoop=1;jettySize=auto;html=1;exitX=1;exitY=0;exitDx=0;exitDy=0;entryX=0;entryY=0.5;entryDx=0;entryDy=0;endArrow=none;endFill=0;" edge="1" parent="1" source="ylqDBzfYfdz9K3D1WMCK-4" target="ylqDBzfYfdz9K3D1WMCK-30">
          <mxGeometry relative="1" as="geometry" />
        </mxCell>
        <mxCell id="ylqDBzfYfdz9K3D1WMCK-4" value="E-A-I" style="rhombus;whiteSpace=wrap;html=1;fontStyle=1" vertex="1" parent="1">
          <mxGeometry x="540" y="220" width="80" height="80" as="geometry" />
        </mxCell>
        <mxCell id="ylqDBzfYfdz9K3D1WMCK-8" value="N:N:N" style="text;html=1;align=center;verticalAlign=middle;whiteSpace=wrap;rounded=0;" vertex="1" parent="1">
          <mxGeometry x="565" y="190" width="30" height="30" as="geometry" />
        </mxCell>
        <mxCell id="ylqDBzfYfdz9K3D1WMCK-38" style="edgeStyle=orthogonalEdgeStyle;rounded=0;orthogonalLoop=1;jettySize=auto;html=1;exitX=0;exitY=1;exitDx=0;exitDy=0;entryX=1;entryY=0.5;entryDx=0;entryDy=0;endArrow=none;endFill=0;" edge="1" parent="1" source="ylqDBzfYfdz9K3D1WMCK-9" target="ylqDBzfYfdz9K3D1WMCK-32">
          <mxGeometry relative="1" as="geometry">
            <Array as="points">
              <mxPoint x="480" y="630" />
              <mxPoint x="480" y="710" />
            </Array>
          </mxGeometry>
        </mxCell>
        <mxCell id="ylqDBzfYfdz9K3D1WMCK-39" style="edgeStyle=orthogonalEdgeStyle;rounded=0;orthogonalLoop=1;jettySize=auto;html=1;exitX=0;exitY=1;exitDx=0;exitDy=0;entryX=1;entryY=0.5;entryDx=0;entryDy=0;endArrow=none;endFill=0;" edge="1" parent="1" source="ylqDBzfYfdz9K3D1WMCK-9" target="ylqDBzfYfdz9K3D1WMCK-33">
          <mxGeometry relative="1" as="geometry">
            <Array as="points">
              <mxPoint x="480" y="630" />
              <mxPoint x="480" y="755" />
            </Array>
          </mxGeometry>
        </mxCell>
        <mxCell id="ylqDBzfYfdz9K3D1WMCK-40" style="edgeStyle=orthogonalEdgeStyle;rounded=0;orthogonalLoop=1;jettySize=auto;html=1;exitX=0;exitY=1;exitDx=0;exitDy=0;entryX=1;entryY=0.5;entryDx=0;entryDy=0;endArrow=none;endFill=0;" edge="1" parent="1" source="ylqDBzfYfdz9K3D1WMCK-9" target="ylqDBzfYfdz9K3D1WMCK-34">
          <mxGeometry relative="1" as="geometry">
            <Array as="points">
              <mxPoint x="480" y="630" />
              <mxPoint x="480" y="810" />
            </Array>
          </mxGeometry>
        </mxCell>
        <mxCell id="ylqDBzfYfdz9K3D1WMCK-41" style="edgeStyle=orthogonalEdgeStyle;rounded=0;orthogonalLoop=1;jettySize=auto;html=1;exitX=0;exitY=1;exitDx=0;exitDy=0;entryX=1;entryY=0.5;entryDx=0;entryDy=0;endArrow=none;endFill=0;" edge="1" parent="1" source="ylqDBzfYfdz9K3D1WMCK-9" target="ylqDBzfYfdz9K3D1WMCK-35">
          <mxGeometry relative="1" as="geometry">
            <Array as="points">
              <mxPoint x="480" y="630" />
              <mxPoint x="480" y="860" />
            </Array>
          </mxGeometry>
        </mxCell>
        <mxCell id="ylqDBzfYfdz9K3D1WMCK-42" style="edgeStyle=orthogonalEdgeStyle;rounded=0;orthogonalLoop=1;jettySize=auto;html=1;exitX=0;exitY=1;exitDx=0;exitDy=0;entryX=1;entryY=0.5;entryDx=0;entryDy=0;endArrow=none;endFill=0;" edge="1" parent="1" source="ylqDBzfYfdz9K3D1WMCK-9" target="ylqDBzfYfdz9K3D1WMCK-36">
          <mxGeometry relative="1" as="geometry">
            <Array as="points">
              <mxPoint x="480" y="630" />
              <mxPoint x="480" y="910" />
            </Array>
          </mxGeometry>
        </mxCell>
        <mxCell id="ylqDBzfYfdz9K3D1WMCK-9" value="Ventas" style="shape=ext;margin=3;double=1;whiteSpace=wrap;html=1;align=center;" vertex="1" parent="1">
          <mxGeometry x="530" y="590" width="100" height="40" as="geometry" />
        </mxCell>
        <mxCell id="ylqDBzfYfdz9K3D1WMCK-10" value="Artículos" style="whiteSpace=wrap;html=1;align=center;" vertex="1" parent="1">
          <mxGeometry x="180" y="590" width="100" height="40" as="geometry" />
        </mxCell>
        <mxCell id="ylqDBzfYfdz9K3D1WMCK-12" style="edgeStyle=orthogonalEdgeStyle;rounded=0;orthogonalLoop=1;jettySize=auto;html=1;exitX=0;exitY=0.5;exitDx=0;exitDy=0;entryX=1;entryY=0.5;entryDx=0;entryDy=0;" edge="1" parent="1" source="ylqDBzfYfdz9K3D1WMCK-11" target="ylqDBzfYfdz9K3D1WMCK-10">
          <mxGeometry relative="1" as="geometry" />
        </mxCell>
        <mxCell id="ylqDBzfYfdz9K3D1WMCK-13" style="edgeStyle=orthogonalEdgeStyle;rounded=0;orthogonalLoop=1;jettySize=auto;html=1;exitX=1;exitY=0.5;exitDx=0;exitDy=0;entryX=0;entryY=0.5;entryDx=0;entryDy=0;" edge="1" parent="1" source="ylqDBzfYfdz9K3D1WMCK-11" target="ylqDBzfYfdz9K3D1WMCK-9">
          <mxGeometry relative="1" as="geometry" />
        </mxCell>
        <mxCell id="ylqDBzfYfdz9K3D1WMCK-11" value="A-V" style="rhombus;whiteSpace=wrap;html=1;fontStyle=1" vertex="1" parent="1">
          <mxGeometry x="370" y="570" width="80" height="80" as="geometry" />
        </mxCell>
        <mxCell id="ylqDBzfYfdz9K3D1WMCK-15" style="edgeStyle=orthogonalEdgeStyle;rounded=0;orthogonalLoop=1;jettySize=auto;html=1;exitX=0;exitY=0.5;exitDx=0;exitDy=0;entryX=1;entryY=0.5;entryDx=0;entryDy=0;" edge="1" parent="1" source="ylqDBzfYfdz9K3D1WMCK-14" target="ylqDBzfYfdz9K3D1WMCK-9">
          <mxGeometry relative="1" as="geometry" />
        </mxCell>
        <mxCell id="ylqDBzfYfdz9K3D1WMCK-18" style="edgeStyle=orthogonalEdgeStyle;rounded=0;orthogonalLoop=1;jettySize=auto;html=1;exitX=1;exitY=0.5;exitDx=0;exitDy=0;entryX=0;entryY=0.5;entryDx=0;entryDy=0;" edge="1" parent="1" source="ylqDBzfYfdz9K3D1WMCK-14" target="ylqDBzfYfdz9K3D1WMCK-17">
          <mxGeometry relative="1" as="geometry" />
        </mxCell>
        <mxCell id="ylqDBzfYfdz9K3D1WMCK-14" value="I-V" style="rhombus;whiteSpace=wrap;html=1;fontStyle=1" vertex="1" parent="1">
          <mxGeometry x="710" y="570" width="80" height="80" as="geometry" />
        </mxCell>
        <mxCell id="ylqDBzfYfdz9K3D1WMCK-17" value="Ingredientes" style="whiteSpace=wrap;html=1;align=center;" vertex="1" parent="1">
          <mxGeometry x="870" y="590" width="100" height="40" as="geometry" />
        </mxCell>
        <mxCell id="ylqDBzfYfdz9K3D1WMCK-19" value="Pedidos" style="whiteSpace=wrap;html=1;align=center;" vertex="1" parent="1">
          <mxGeometry x="530" y="890" width="100" height="40" as="geometry" />
        </mxCell>
        <mxCell id="ylqDBzfYfdz9K3D1WMCK-20" value="" style="group" vertex="1" connectable="0" parent="1">
          <mxGeometry x="540" y="720" width="80" height="80" as="geometry" />
        </mxCell>
        <mxCell id="ylqDBzfYfdz9K3D1WMCK-21" value="&lt;b&gt;E-V&lt;/b&gt;" style="shape=rhombus;perimeter=rhombusPerimeter;whiteSpace=wrap;html=1;align=center;" vertex="1" parent="ylqDBzfYfdz9K3D1WMCK-20">
          <mxGeometry width="80" height="80" as="geometry" />
        </mxCell>
        <mxCell id="ylqDBzfYfdz9K3D1WMCK-22" value="" style="endArrow=none;html=1;rounded=0;exitX=0;exitY=0;exitDx=0;exitDy=0;entryX=1;entryY=0;entryDx=0;entryDy=0;" edge="1" parent="ylqDBzfYfdz9K3D1WMCK-20" source="ylqDBzfYfdz9K3D1WMCK-21" target="ylqDBzfYfdz9K3D1WMCK-21">
          <mxGeometry width="50" height="50" relative="1" as="geometry">
            <mxPoint x="-50" y="130" as="sourcePoint" />
            <mxPoint y="80" as="targetPoint" />
          </mxGeometry>
        </mxCell>
        <mxCell id="ylqDBzfYfdz9K3D1WMCK-23" value="I" style="text;html=1;align=center;verticalAlign=middle;whiteSpace=wrap;rounded=0;" vertex="1" parent="ylqDBzfYfdz9K3D1WMCK-20">
          <mxGeometry x="30" y="8" width="20" height="10" as="geometry" />
        </mxCell>
        <mxCell id="ylqDBzfYfdz9K3D1WMCK-24" style="edgeStyle=orthogonalEdgeStyle;rounded=0;orthogonalLoop=1;jettySize=auto;html=1;exitX=0.5;exitY=1;exitDx=0;exitDy=0;entryX=0.5;entryY=0;entryDx=0;entryDy=0;" edge="1" parent="1" source="ylqDBzfYfdz9K3D1WMCK-21" target="ylqDBzfYfdz9K3D1WMCK-19">
          <mxGeometry relative="1" as="geometry" />
        </mxCell>
        <mxCell id="ylqDBzfYfdz9K3D1WMCK-25" style="edgeStyle=orthogonalEdgeStyle;rounded=0;orthogonalLoop=1;jettySize=auto;html=1;exitX=0.5;exitY=0;exitDx=0;exitDy=0;entryX=0.5;entryY=1;entryDx=0;entryDy=0;" edge="1" parent="1" source="ylqDBzfYfdz9K3D1WMCK-21" target="ylqDBzfYfdz9K3D1WMCK-9">
          <mxGeometry relative="1" as="geometry" />
        </mxCell>
        <mxCell id="ylqDBzfYfdz9K3D1WMCK-26" value="" style="shape=singleArrow;direction=south;whiteSpace=wrap;html=1;fillColor=#000000;" vertex="1" parent="1">
          <mxGeometry x="550" y="450" width="60" height="100" as="geometry" />
        </mxCell>
        <mxCell id="ylqDBzfYfdz9K3D1WMCK-27" value="1:N" style="text;html=1;align=center;verticalAlign=middle;whiteSpace=wrap;rounded=0;" vertex="1" parent="1">
          <mxGeometry x="395" y="650" width="30" height="30" as="geometry" />
        </mxCell>
        <mxCell id="ylqDBzfYfdz9K3D1WMCK-28" value="N:N" style="text;html=1;align=center;verticalAlign=middle;whiteSpace=wrap;rounded=0;" vertex="1" parent="1">
          <mxGeometry x="735" y="650" width="30" height="30" as="geometry" />
        </mxCell>
        <mxCell id="ylqDBzfYfdz9K3D1WMCK-29" value="1:N" style="text;html=1;align=center;verticalAlign=middle;whiteSpace=wrap;rounded=0;" vertex="1" parent="1">
          <mxGeometry x="620" y="745" width="30" height="30" as="geometry" />
        </mxCell>
        <mxCell id="ylqDBzfYfdz9K3D1WMCK-30" value="unidades" style="ellipse;whiteSpace=wrap;html=1;align=center;" vertex="1" parent="1">
          <mxGeometry x="665" y="160" width="100" height="40" as="geometry" />
        </mxCell>
        <mxCell id="ylqDBzfYfdz9K3D1WMCK-32" value="fecha_pedido" style="ellipse;whiteSpace=wrap;html=1;align=center;fontStyle=5;" vertex="1" parent="1">
          <mxGeometry x="350" y="690" width="100" height="40" as="geometry" />
        </mxCell>
        <mxCell id="ylqDBzfYfdz9K3D1WMCK-33" value="pedido#" style="ellipse;whiteSpace=wrap;html=1;align=center;fontStyle=5;" vertex="1" parent="1">
          <mxGeometry x="350" y="735" width="100" height="40" as="geometry" />
        </mxCell>
        <mxCell id="ylqDBzfYfdz9K3D1WMCK-34" value="venta#" style="ellipse;whiteSpace=wrap;html=1;align=center;fontStyle=5;" vertex="1" parent="1">
          <mxGeometry x="350" y="790" width="100" height="40" as="geometry" />
        </mxCell>
        <mxCell id="ylqDBzfYfdz9K3D1WMCK-35" value="unidades" style="ellipse;whiteSpace=wrap;html=1;align=center;" vertex="1" parent="1">
          <mxGeometry x="350" y="840" width="100" height="40" as="geometry" />
        </mxCell>
        <mxCell id="ylqDBzfYfdz9K3D1WMCK-36" value="valor_venta" style="ellipse;whiteSpace=wrap;html=1;align=center;" vertex="1" parent="1">
          <mxGeometry x="350" y="890" width="100" height="40" as="geometry" />
        </mxCell>
        <mxCell id="ylqDBzfYfdz9K3D1WMCK-44" value="1,1" style="text;html=1;align=center;verticalAlign=middle;whiteSpace=wrap;rounded=0;" vertex="1" parent="1">
          <mxGeometry x="290" y="580" width="30" height="30" as="geometry" />
        </mxCell>
        <mxCell id="ylqDBzfYfdz9K3D1WMCK-45" value="0,n" style="text;html=1;align=center;verticalAlign=middle;whiteSpace=wrap;rounded=0;" vertex="1" parent="1">
          <mxGeometry x="490" y="580" width="30" height="30" as="geometry" />
        </mxCell>
        <mxCell id="ylqDBzfYfdz9K3D1WMCK-46" value="0,n" style="text;html=1;align=center;verticalAlign=middle;whiteSpace=wrap;rounded=0;" vertex="1" parent="1">
          <mxGeometry x="640" y="580" width="30" height="30" as="geometry" />
        </mxCell>
        <mxCell id="ylqDBzfYfdz9K3D1WMCK-47" value="0,n" style="text;html=1;align=center;verticalAlign=middle;whiteSpace=wrap;rounded=0;" vertex="1" parent="1">
          <mxGeometry x="830" y="580" width="30" height="30" as="geometry" />
        </mxCell>
        <mxCell id="ylqDBzfYfdz9K3D1WMCK-48" value="1,1" style="text;html=1;align=center;verticalAlign=middle;whiteSpace=wrap;rounded=0;" vertex="1" parent="1">
          <mxGeometry x="580" y="850" width="30" height="30" as="geometry" />
        </mxCell>
        <mxCell id="ylqDBzfYfdz9K3D1WMCK-49" value="1,n" style="text;html=1;align=center;verticalAlign=middle;whiteSpace=wrap;rounded=0;" vertex="1" parent="1">
          <mxGeometry x="580" y="640" width="30" height="30" as="geometry" />
        </mxCell>
        <mxCell id="ylqDBzfYfdz9K3D1WMCK-50" value="0,n" style="text;html=1;align=center;verticalAlign=middle;whiteSpace=wrap;rounded=0;" vertex="1" parent="1">
          <mxGeometry x="580" y="320" width="30" height="30" as="geometry" />
        </mxCell>
        <mxCell id="ylqDBzfYfdz9K3D1WMCK-51" value="1,n" style="text;html=1;align=center;verticalAlign=middle;whiteSpace=wrap;rounded=0;" vertex="1" parent="1">
          <mxGeometry x="470" y="230" width="30" height="30" as="geometry" />
        </mxCell>
        <mxCell id="ylqDBzfYfdz9K3D1WMCK-52" value="0,n" style="text;html=1;align=center;verticalAlign=middle;whiteSpace=wrap;rounded=0;" vertex="1" parent="1">
          <mxGeometry x="660" y="230" width="30" height="30" as="geometry" />
        </mxCell>
      </root>
    </mxGraphModel>
  </diagram>
</mxfile>
